<?xml version="1.0" standalone="no"?>
<!DOCTYPE svg PUBLIC "-//W3C//DTD SVG 20010904//EN"
 "http://www.w3.org/TR/2001/REC-SVG-20010904/DTD/svg10.dtd">
<svg version="1.0" xmlns="http://www.w3.org/2000/svg"
 width="256.000000pt" height="256.000000pt" viewBox="0 0 256.000000 256.000000"
 preserveAspectRatio="xMidYMid meet">
<metadata>
Created by potrace 1.14, written by Peter Selinger 2001-2017
</metadata>
<g transform="translate(0.000000,256.000000) scale(0.100000,-0.100000)"
fill="#000000" stroke="none">
<path d="M552 2548 c-28 -28 -13 -55 60 -108 l72 -53 -62 -22 c-117 -42 -193
-118 -234 -233 -17 -48 -21 -84 -23 -225 l-2 -168 -46 -42 c-26 -23 -48 -49
-49 -57 -2 -8 -7 -18 -11 -21 -15 -11 -20 -67 -20 -239 0 -197 7 -233 59 -286
40 -42 90 -64 149 -66 l45 -2 0 -285 0 -284 48 -46 c105 -101 225 -206 233
-203 5 1 8 -2 7 -6 -2 -4 15 -24 37 -43 21 -18 50 -45 65 -59 14 -14 44 -42
68 -63 l42 -37 290 0 289 0 38 32 c21 18 47 42 59 53 11 11 43 40 71 65 199
181 243 220 285 261 l48 45 0 285 0 285 46 2 c87 3 169 62 195 138 13 40 18
331 7 404 -8 53 -32 94 -80 133 l-42 35 -2 214 c-1 253 1 246 -114 378 -10 12
-33 39 -50 60 -18 22 -39 40 -46 40 -8 0 -14 4 -14 8 0 13 -78 36 -119 35 -26
-1 -45 7 -69 28 -68 60 -53 59 -661 59 -420 0 -560 -3 -569 -12z"/>
</g>
</svg>
